<?xml version="1.0" encoding="UTF-8"?>
<svg xmlns="http://www.w3.org/2000/svg" xmlns:xlink="http://www.w3.org/1999/xlink" viewBox="0 0 500 500">
  <defs>
    <style>
      .cls-1 {
        fill: #f0f0f0;
      }

      .cls-2 {
        opacity: .4;
      }

      .cls-2, .cls-3, .cls-4, .cls-5, .cls-6, .cls-7 {
        fill: #184a90;
      }

      .cls-8, .cls-9, .cls-10, .cls-11, .cls-12, .cls-13, .cls-14 {
        fill: #fff;
      }

      .cls-3, .cls-15, .cls-13 {
        opacity: .2;
      }

      .cls-16 {
        fill: #f5f5f5;
      }

      .cls-4, .cls-14 {
        opacity: .6;
      }

      .cls-9, .cls-5, .cls-17 {
        opacity: .3;
      }

      .cls-10, .cls-7 {
        opacity: .5;
      }

      .cls-11 {
        opacity: .8;
      }

      .cls-12 {
        opacity: .7;
      }

      .cls-18 {
        fill: #e6e6e6;
      }

      .cls-19 {
        fill: url(#radial-gradient);
      }

      .cls-20 {
        fill: #ebebeb;
      }

      .cls-21 {
        fill: #263238;
      }
    </style>
    <radialGradient id="radial-gradient" cx="250" cy="250" fx="250" fy="250" r="195.79" gradientUnits="userSpaceOnUse">
      <stop offset="0" stop-color="#407bff" stop-opacity="0"/>
      <stop offset=".52" stop-color="#407bff" stop-opacity=".1"/>
      <stop offset="1" stop-color="#407bff" stop-opacity="0"/>
    </radialGradient>
  </defs>
  <g id="Background_Complete" data-name="Background Complete">
    <g>
      <g>
        <polygon class="cls-20" points="113.05 168.25 114.67 171.52 118.29 172.05 115.67 174.6 116.29 178.2 113.05 176.5 109.82 178.2 110.44 174.6 107.82 172.05 111.44 171.52 113.05 168.25"/>
        <polygon class="cls-16" points="436.7 322.48 438.32 325.76 441.94 326.28 439.32 328.84 439.94 332.44 436.7 330.74 433.47 332.44 434.09 328.84 431.47 326.28 435.09 325.76 436.7 322.48"/>
        <polygon class="cls-16" points="372.6 417.57 374.22 420.84 377.83 421.37 375.22 423.92 375.83 427.52 372.6 425.82 369.37 427.52 369.98 423.92 367.37 421.37 370.98 420.84 372.6 417.57"/>
        <path class="cls-20" d="m225.94,110.15l.6,1.22,1.34.19c.34.05.47.46.23.7l-.97.95.23,1.34c.06.33-.29.59-.59.43l-1.2-.63-1.2.63c-.3.16-.65-.1-.59-.43l.23-1.34-.97-.95c-.24-.24-.11-.65.23-.7l1.34-.19.6-1.22c.15-.3.58-.3.73,0Z"/>
        <path class="cls-16" d="m60.78,402.01l.6,1.22,1.34.19c.34.05.47.46.23.7l-.97.95.23,1.34c.06.33-.29.59-.59.43l-1.2-.63-1.2.63c-.3.16-.65-.1-.59-.43l.23-1.34-.97-.95c-.24-.24-.11-.65.23-.7l1.34-.19.6-1.22c.15-.3.58-.3.73,0Z"/>
        <path class="cls-20" d="m87.75,97.3l.6,1.22,1.34.19c.33.05.47.46.23.7l-.97.95.23,1.34c.06.33-.29.59-.59.43l-1.2-.63-1.2.63c-.3.16-.65-.1-.59-.43l.23-1.34-.97-.95c-.24-.24-.11-.65.23-.7l1.34-.19.6-1.22c.15-.3.58-.3.73,0Z"/>
        <path class="cls-20" d="m86.13,338.32c0,.73-.59,1.33-1.33,1.33s-1.33-.59-1.33-1.33.59-1.33,1.33-1.33,1.33.59,1.33,1.33Z"/>
        <path class="cls-20" d="m275.67,171.89c0,.73-.59,1.33-1.33,1.33s-1.33-.59-1.33-1.33.59-1.33,1.33-1.33,1.33.59,1.33,1.33Z"/>
        <path class="cls-16" d="m206.71,98.4c0,.73-.59,1.33-1.33,1.33s-1.33-.59-1.33-1.33.59-1.33,1.33-1.33,1.33.59,1.33,1.33Z"/>
      </g>
      <circle class="cls-1" cx="207.14" cy="415.38" r="7.35" transform="translate(-89.89 58.7) rotate(-13.28)"/>
      <path class="cls-18" d="m204.6,411.09c-1.56,0-3.01.5-4.19,1.36-.39.9-.61,1.89-.61,2.93,0,4.06,3.29,7.34,7.35,7.34,1.37,0,2.66-.38,3.76-1.04t0-.01c.55-1.02.86-2.18.86-3.42,0-3.95-3.21-7.16-7.17-7.16Z"/>
    </g>
    <path class="cls-19" d="m538.96,50.5h11.04v-.5h-11.91l-5.1,8.84-5.11,8.84h-20.41l-10.21-17.68h-22.15l-7.46,12.92-2.75,4.76h-20.42l-10.2-17.68h-22.15l-10.21,17.68h-20.42l-10.21-17.68h-22.15l-10.2,17.68h-20.42l-10.21-17.68h-22.15l-7.46,12.92-2.75,4.76h-20.41l-10.21-17.68h-22.15l-10.21,17.68h-20.41l-10.21-17.68h-22.15l-5.11,8.84-5.1,8.84h-20.42l-10.2-17.68h-22.15l-2.76,4.76-7.45,12.92h-20.42l-10.21-17.68h-22.15l-10.21,17.68H3.61l-10.21-17.68h-22.15l-5.1,8.84-5.11,8.84h-11.04v1h11.04l5.11,8.84,5.1,8.84-5.1,8.84-5.11,8.85h-11.04v1h11.04l5.11,8.84,5.1,8.84-5.1,8.84-5.11,8.84h-11.04v1h11.04l5.11,8.84,5.1,8.84-5.1,8.84-5.11,8.84h-11.04v1h11.04l5.11,8.84,5.1,8.84-5.1,8.85-5.11,8.84h-11.04v1h11.04l5.11,8.84,5.1,8.84-5.1,8.84-5.11,8.84h-11.04v1h11.04l5.11,8.84,5.1,8.84-5.1,8.84-5.11,8.84h-11.04v1h11.04l5.11,8.84,5.1,8.85-5.1,8.84-5.11,8.84h-11.04v1h11.04l5.11,8.84,5.1,8.84-5.1,8.84-5.11,8.84h-11.04v1h11.04l5.11,8.84,5.1,8.84-5.1,8.84-5.11,8.84h-11.04v1h11.04l5.11,8.85,5.1,8.84-5.1,8.84-5.11,8.84h-11.04v1h11.04l5.11,8.84,5.1,8.84H-6.6l10.21-17.68h20.41l6.81,11.79,3.4,5.89h22.15l10.21-17.68h20.42l7.45,12.92,2.76,4.76h22.15l10.2-17.68h20.42l5.1,8.84,5.11,8.84h22.15l10.21-17.68h20.41l6.81,11.79,3.4,5.89h22.15l10.21-17.68h20.41l2.75,4.76,7.46,12.92h22.15l10.21-17.68h20.42l10.2,17.68h22.15l10.21-17.68h20.42l6.8,11.79,3.41,5.89h22.15l10.2-17.68h20.42l2.75,4.76,7.46,12.92h22.15l10.21-17.68h20.41l5.11,8.84,5.1,8.84h11.91v-.5h-11.04l-5.11-8.84-5.1-8.84,5.1-8.84,5.11-8.84h11.04v-1h-11.04l-5.11-8.84-5.1-8.85,5.1-8.84,5.11-8.84h11.04v-1h-11.04l-5.11-8.84-5.1-8.84,5.1-8.84,5.11-8.84h11.04v-1h-11.04l-5.11-8.84-5.1-8.84,5.1-8.84,5.11-8.84h11.04v-1h-11.04l-5.11-8.85-5.1-8.84,5.1-8.84,5.11-8.84h11.04v-1h-11.04l-5.11-8.84-5.1-8.84,5.1-8.84,5.11-8.84h11.04v-1h-11.04l-5.11-8.84-5.1-8.84,5.1-8.84,5.11-8.85h11.04v-1h-11.04l-5.11-8.84-5.1-8.84,5.1-8.84,5.11-8.84h11.04v-1h-11.04l-5.11-8.84-5.1-8.84,5.1-8.84,5.11-8.84h11.04v-1h-11.04l-5.11-8.84-5.1-8.84,5.1-8.85,5.11-8.84h11.04v-1h-11.04l-5.11-8.84-5.1-8.84,5.1-8.84,5.11-8.84Zm-62.98,0h20.41l10.21,17.68-10.21,17.68h-20.41l-10.21-17.68,10.21-17.68Zm-125.97,180.82l-10.21-17.68,10.21-17.69h20.42l10.21,17.69-10.21,17.68h-20.42Zm30.63,18.68l-10.21,17.68h-20.42l-10.21-17.68,10.21-17.68h20.42l10.21,17.68Zm-31.5-18.18l-10.2,17.68h-20.42l-10.21-17.68,10.21-17.68h20.42l10.2,17.68Zm-31.49,18.18l-10.21,17.68h-20.41l-6.81-11.79-3.4-5.89,10.21-17.68h20.41l10.21,17.68Zm-10.21-18.68h-20.41l-10.21-17.68,10.21-17.69h20.41l10.21,17.69-10.21,17.68Zm-28.75-12.45l7.47,12.95-7.46,12.92-2.75,4.76h-20.41l-10.21-17.68,10.21-17.68h20.41l2.74,4.73Zm-24.02,31.13l-10.21,17.68h-20.41l-2.75-4.76-7.46-12.92,7.46-12.92,2.75-4.76h20.41l10.21,17.68Zm-10.21-18.68h-20.41l-2.74-4.74-7.47-12.94,7.46-12.92,2.75-4.77h20.41l10.21,17.69-10.21,17.68Zm-21.28.5l-10.21,17.68h-20.41l-10.21-17.68,10.21-17.68h20.41l10.21,17.68Zm-31.49,18.18l-10.21,17.68h-20.42l-5.1-8.84-5.1-8.84,5.1-8.84,5.1-8.84h20.42l10.21,17.68Zm-10.21-18.68h-20.42l-5.1-8.84-5.1-8.84,5.1-8.84,5.1-8.85h20.42l10.21,17.69-10.21,17.68Zm-26.39-8.34l5.11,8.84-5.11,8.84-5.1,8.84h-20.42l-10.2-17.68,10.2-17.68h20.42l5.1,8.84Zm-36.59,8.34h-20.42l-10.21-17.68,10.21-17.69h20.42l10.21,17.69-10.21,17.68Zm0,1l10.21,17.68-10.21,17.68h-20.42l-10.21-17.68,10.21-17.68h20.42Zm0,36.36l10.21,17.68-10.21,17.69h-20.42l-10.21-17.69,10.21-17.68h20.42Zm.87-.5l10.2-17.68h20.42l5.1,8.84,5.11,8.84-5.11,8.84-5.1,8.84h-20.42l-10.2-17.68Zm36.59,9.34l5.1-8.84h20.42l10.21,17.68-10.21,17.69h-20.42l-5.1-8.85-5.1-8.84,5.1-8.84Zm26.39-9.34l10.21-17.68h20.41l6.81,11.79,3.4,5.89-10.21,17.68h-20.41l-10.21-17.68Zm38.95,5.27l2.75-4.77h20.41l10.21,17.68-10.21,17.69h-20.41l-2.72-4.71-7.49-12.98,7.46-12.91Zm24.03-5.27l10.21-17.68h20.41l2.75,4.76,7.46,12.92-7.46,12.92-2.75,4.76h-20.41l-10.21-17.68Zm41.7.5h20.41l10.21,17.68-10.21,17.69h-20.41l-10.21-17.69,10.21-17.68Zm21.28-.5l10.21-17.68h20.42l10.2,17.68-10.2,17.68h-20.42l-10.21-17.68Zm41.7.5h20.42l10.21,17.68-10.21,17.69h-20.42l-10.21-17.69,10.21-17.68Zm21.28-.5l10.21-17.68h20.42l6.8,11.79,3.41,5.89-10.21,17.68h-20.42l-10.21-17.68Zm10.21-18.68l-10.21-17.68,10.21-17.68h20.42l10.21,17.68-10.21,17.68h-20.42Zm0-36.36l-10.21-17.68,10.21-17.69h20.42l6.8,11.79,3.41,5.89-10.21,17.69h-20.42Zm-11.07-18.19h-20.42l-10.21-17.68,10.21-17.68h20.42l10.21,17.68-10.21,17.68Zm-21.29.5l-10.2,17.69h-20.42l-10.21-17.69,10.21-17.68h20.42l10.2,17.68Zm-41.7-.5h-20.41l-6.81-11.78-3.4-5.9,10.21-17.68h20.41l10.21,17.68-10.21,17.68Zm-28.74-12.41l7.46,12.91-7.46,12.92-2.75,4.77h-20.41l-10.21-17.69,10.21-17.68h20.41l2.75,4.77Zm-34.24,12.41h-20.41l-2.75-4.76-7.46-12.92,7.47-12.94,2.74-4.74h20.41l10.21,17.68-10.21,17.68Zm-24.68-5.39l3.4,5.89-10.21,17.69h-20.41l-10.21-17.68,10.21-17.69h20.41l6.81,11.79Zm-38.3,5.39h-20.42l-5.1-8.84-5.1-8.84,5.1-8.84,5.1-8.84h20.42l10.21,17.68-10.21,17.68Zm-26.39-8.34l5.11,8.84-5.11,8.85-5.1,8.84h-20.42l-10.2-17.69,10.2-17.68h20.42l5.1,8.84Zm-36.59,8.34h-20.42l-10.21-17.68,10.21-17.68h20.42l10.21,17.68-10.21,17.68Zm-24.04-4.26l2.76,4.76-2.76,4.77-7.45,12.92h-20.42l-10.21-17.69,10.21-17.68h20.42l7.45,12.92Zm-7.45,23.45l7.47,12.94,2.74,4.74-2.76,4.76-7.45,12.92h-20.42l-10.21-17.68,10.21-17.68h20.42Zm0,36.36l7.45,12.92,2.76,4.76-2.76,4.77-7.45,12.91h-20.42l-10.21-17.68,10.21-17.68h20.42Zm0,36.36l7.49,12.98,2.72,4.71-2.76,4.76-7.45,12.92h-20.42l-10.21-17.68,10.21-17.69h20.42Zm11.07,18.19h20.42l10.21,17.68-10.21,17.68h-20.42l-10.21-17.68,10.21-17.68Zm21.29-.5l10.2-17.69h20.42l5.1,8.84,5.11,8.85-5.11,8.84-5.1,8.84h-20.42l-10.2-17.68Zm36.59,9.34l5.1-8.84h20.42l10.21,17.68-10.21,17.68h-20.42l-5.1-8.84-5.1-8.84,5.1-8.84Zm26.39-9.34l10.21-17.69h20.41l10.21,17.69-10.21,17.68h-20.41l-10.21-17.68Zm38.95,5.26l2.75-4.76h20.41l10.21,17.68-10.21,17.68h-20.41l-2.75-4.76-7.46-12.92,7.46-12.92Zm24.03-5.26l10.21-17.69h20.41l2.72,4.71,7.49,12.98-7.46,12.91-2.75,4.77h-20.41l-10.21-17.68Zm41.7.5h20.41l10.21,17.68-10.21,17.68h-20.41l-6.81-11.79-3.4-5.89,10.21-17.68Zm21.28-.5l10.21-17.69h20.42l10.2,17.69-10.2,17.68h-20.42l-10.21-17.68Zm41.7.5h20.42l10.21,17.68-10.21,17.68h-20.42l-10.21-17.68,10.21-17.68Zm21.28-.5l10.21-17.69h20.42l10.21,17.69-10.21,17.68h-20.42l-10.21-17.68Zm38.95,5.26l2.75-4.76h20.42l10.21,17.68-10.21,17.68h-20.42l-2.75-4.76-7.45-12.92,7.45-12.92Zm2.75-5.76l-2.71-4.71-7.49-12.98,7.45-12.91,2.75-4.77h20.42l10.21,17.68-10.21,17.69h-20.42Zm0-36.37l-2.75-4.76-7.45-12.92,7.45-12.92,2.75-4.76h20.42l10.21,17.68-10.21,17.68h-20.42Zm0-36.36l-2.73-4.74-7.47-12.94,7.45-12.92,2.75-4.77h20.42l10.21,17.69-10.21,17.68h-20.42Zm0-36.37l-2.75-4.76-7.45-12.92,7.47-12.94,2.73-4.74h20.42l10.21,17.68-10.21,17.68h-20.42Zm0-36.36l-2.75-4.76-7.45-12.92,7.47-12.95,2.73-4.73h20.42l10.21,17.68-10.21,17.68h-20.42Zm-4.27-5.39l3.41,5.89-10.21,17.68h-20.42l-10.21-17.68,10.21-17.68h20.42l6.8,11.79Zm-38.29,5.39h-20.42l-10.21-17.68,10.21-17.68h20.42l10.21,17.68-10.21,17.68Zm-21.29.5l-10.2,17.68h-20.42l-10.21-17.68,10.21-17.68h20.42l10.2,17.68Zm-41.7-.5h-20.41l-6.81-11.79-3.4-5.89,10.21-17.68h20.41l10.21,17.68-10.21,17.68Zm-28.74-12.42l7.46,12.92-7.47,12.95-2.74,4.73h-20.41l-10.21-17.68,10.21-17.68h20.41l2.75,4.76Zm-34.24,12.42h-20.41l-2.75-4.76-7.46-12.92,7.47-12.95,2.74-4.73h20.41l10.21,17.68-10.21,17.68Zm-24.68-5.39l3.4,5.89-10.21,17.68h-20.41l-10.21-17.68,10.21-17.68h20.41l6.81,11.79Zm-38.3,5.39h-20.42l-5.1-8.84-5.1-8.84,5.1-8.84,5.1-8.84h20.42l10.21,17.68-10.21,17.68Zm-26.39-8.34l5.11,8.84-5.11,8.84-5.1,8.84h-20.42l-10.2-17.68,10.2-17.68h20.42l5.1,8.84Zm-36.59,8.34h-20.42l-10.21-17.68,10.21-17.68h20.42l10.21,17.68-10.21,17.68Zm-24.04-4.26l2.76,4.76-2.74,4.74-7.47,12.94h-20.42l-10.21-17.68,10.21-17.68h20.42l7.45,12.92Zm-38.94,4.26h-20.42l-2.75-4.76-7.46-12.92,7.48-12.95,2.73-4.73h20.42l10.2,17.68-10.2,17.68Zm0,1l10.2,17.68-10.2,17.68h-20.42l-2.75-4.76-7.46-12.92,7.48-12.94,2.73-4.74h20.42Zm0,36.36l10.2,17.69-10.2,17.68h-20.42l-2.73-4.74-7.48-12.94,7.46-12.92,2.75-4.77h20.42Zm0,36.37l10.2,17.68-10.2,17.68h-20.42l-2.75-4.76-7.46-12.92,7.46-12.92,2.75-4.76h20.42Zm0,36.36l10.2,17.68-10.2,17.69h-20.42l-2.72-4.71-7.49-12.98,7.46-12.91,2.75-4.77h20.42Zm0,36.37l10.2,17.68-10.2,17.68h-20.42l-2.75-4.76-7.46-12.92,7.46-12.92,2.75-4.76h20.42Zm0,36.36l10.2,17.68-10.2,17.68h-20.42l-2.75-4.76-7.46-12.92,7.46-12.92,2.75-4.76h20.42Zm.86-.5l10.21-17.68h20.42l7.45,12.92,2.76,4.76-2.76,4.76-7.45,12.92h-20.42l-10.21-17.68Zm41.7.5h20.42l10.21,17.68-10.21,17.68h-20.42l-10.21-17.68,10.21-17.68Zm21.29-.5l10.2-17.68h20.42l5.1,8.84,5.11,8.84-5.11,8.84-5.1,8.84h-20.42l-10.2-17.68Zm36.59,9.34l5.1-8.84h20.42l10.21,17.68-10.21,17.68h-20.42l-5.1-8.84-5.1-8.84,5.1-8.84Zm26.39-9.34l10.21-17.68h20.41l6.81,11.79,3.4,5.89-10.21,17.68h-20.41l-10.21-17.68Zm38.95,5.26l2.75-4.76h20.41l10.21,17.68-10.21,17.68h-20.41l-2.75-4.76-7.46-12.92,7.46-12.92Zm24.03-5.26l10.21-17.68h20.41l2.75,4.76,7.46,12.92-7.46,12.92-2.75,4.76h-20.41l-10.21-17.68Zm41.7.5h20.41l10.21,17.68-10.21,17.68h-20.41l-6.81-11.79-3.4-5.89,10.21-17.68Zm21.28-.5l10.21-17.68h20.42l10.2,17.68-10.2,17.68h-20.42l-10.21-17.68Zm41.7.5h20.42l10.21,17.68-10.21,17.68h-20.42l-10.21-17.68,10.21-17.68Zm21.28-.5l10.21-17.68h20.42l6.8,11.79,3.41,5.89-10.21,17.68h-20.42l-10.21-17.68Zm38.95,5.26l2.75-4.76h20.42l10.21,17.68-10.21,17.68h-20.42l-2.75-4.76-7.45-12.92,7.45-12.92Zm24.04-5.26l10.2-17.68h20.42l2.75,4.76,7.46,12.92-7.46,12.92-2.75,4.76h-20.42l-10.2-17.68Zm10.2-18.68l-10.2-17.68,10.2-17.69h20.42l2.72,4.71,7.49,12.98-7.46,12.91-2.75,4.77h-20.42Zm0-36.37l-10.2-17.68,10.2-17.68h20.42l2.75,4.76,7.46,12.92-7.46,12.92-2.75,4.76h-20.42Zm0-36.36l-10.2-17.68,10.2-17.68h20.42l2.73,4.73,7.48,12.95-7.46,12.92-2.75,4.76h-20.42Zm0-36.36l-10.2-17.69,10.2-17.68h20.42l2.75,4.77,7.46,12.91-7.46,12.92-2.75,4.77h-20.42Zm0-36.37l-10.2-17.68,10.2-17.68h20.42l2.75,4.76,7.46,12.92-7.48,12.95-2.73,4.73h-20.42Zm0-36.36l-10.2-17.68,10.2-17.68h20.42l2.75,4.76,7.46,12.92-7.48,12.94-2.73,4.74h-20.42Zm-11.07-18.18h-20.42l-2.75-4.77-7.45-12.91,7.45-12.92,2.75-4.77h20.42l10.21,17.69-10.21,17.68Zm-24.69-5.4l3.41,5.9-10.21,17.68h-20.42l-10.21-17.68,10.21-17.68h20.42l6.8,11.78Zm-38.29,5.4h-20.42l-10.21-17.68,10.21-17.69h20.42l10.21,17.69-10.21,17.68Zm-21.29.5l-10.2,17.68h-20.42l-10.21-17.68,10.21-17.68h20.42l10.2,17.68Zm-41.7-.5h-20.41l-6.81-11.79-3.4-5.89,10.21-17.69h20.41l10.21,17.68-10.21,17.69Zm-28.74-12.42l7.46,12.92-7.47,12.94-2.74,4.74h-20.41l-10.21-17.68,10.21-17.68h20.41l2.75,4.76Zm-34.24,12.42h-20.41l-2.75-4.77-7.46-12.91,7.46-12.92,2.75-4.77h20.41l10.21,17.69-10.21,17.68Zm-24.68-5.4l3.4,5.9-10.21,17.68h-20.41l-10.21-17.68,10.21-17.68h20.41l6.81,11.78Zm-38.3,5.4h-20.42l-5.1-8.84-5.1-8.84,5.1-8.85,5.1-8.84h20.42l10.21,17.69-10.21,17.68Zm-26.39-8.34l5.11,8.84-5.11,8.84-5.1,8.84h-20.42l-10.2-17.68,10.2-17.68h20.42l5.1,8.84Zm-36.59,8.34h-20.42l-10.21-17.68,10.21-17.69h20.42l10.21,17.69-10.21,17.68Zm-24.04-4.27l2.76,4.77-2.74,4.73-7.47,12.95h-20.42l-10.21-17.68,10.21-17.68h20.42l7.45,12.91Zm-38.94,4.27h-20.42l-2.75-4.77-7.46-12.91,7.46-12.92,2.75-4.77h20.42l10.2,17.69-10.2,17.68Zm-24.69-5.4l3.4,5.9-10.21,17.68H3.61l-10.21-17.68,10.21-17.68h20.41l6.81,11.78Zm-6.81,24.58l6.81,11.79,3.4,5.89-10.21,17.68H3.61l-10.21-17.68,10.21-17.68h20.41Zm0,36.36l6.81,11.79,3.4,5.89-10.21,17.69H3.61l-10.21-17.69,10.21-17.68h20.41Zm0,36.37l10.21,17.68-10.21,17.68H3.61l-10.21-17.68,10.21-17.68h20.41Zm0,36.36l6.81,11.79,3.4,5.89-10.21,17.68H3.61l-10.21-17.68,10.21-17.68h20.41Zm0,36.36l10.21,17.69-10.21,17.68H3.61l-10.21-17.68,10.21-17.69h20.41Zm0,36.37l6.81,11.79,3.4,5.89-10.21,17.68H3.61l-10.21-17.68,10.21-17.68h20.41Zm0,36.36l6.81,11.79,3.4,5.89-10.21,17.68H3.61l-10.21-17.68,10.21-17.68h20.41Zm8.33,22.95l2.75-4.77h20.42l10.2,17.68-10.2,17.69h-20.42l-2.72-4.71-7.49-12.98,7.46-12.91Zm24.03-5.27l10.21-17.68h20.42l7.45,12.92,2.76,4.76-2.76,4.77-7.45,12.91h-20.42l-10.21-17.68Zm41.7.5h20.42l10.21,17.68-10.21,17.69h-20.42l-10.21-17.69,10.21-17.68Zm21.29-.5l10.2-17.68h20.42l5.1,8.84,5.11,8.84-5.11,8.84-5.1,8.84h-20.42l-10.2-17.68Zm36.59,9.34l5.1-8.84h20.42l10.21,17.68-10.21,17.69h-20.42l-5.1-8.84-5.1-8.85,5.1-8.84Zm26.39-9.34l10.21-17.68h20.41l6.81,11.79,3.4,5.89-10.21,17.68h-20.41l-10.21-17.68Zm38.95,5.27l2.75-4.77h20.41l10.21,17.68-10.21,17.69h-20.41l-2.72-4.71-7.49-12.98,7.46-12.91Zm24.03-5.27l10.21-17.68h20.41l2.75,4.76,7.46,12.92-7.46,12.92-2.75,4.76h-20.41l-10.21-17.68Zm41.7.5h20.41l10.21,17.68-10.21,17.69h-20.41l-10.21-17.69,10.21-17.68Zm21.28-.5l10.21-17.68h20.42l10.2,17.68-10.2,17.68h-20.42l-10.21-17.68Zm41.7.5h20.42l10.21,17.68-10.21,17.69h-20.42l-10.21-17.69,10.21-17.68Zm21.28-.5l10.21-17.68h20.42l6.8,11.79,3.41,5.89-10.21,17.68h-20.42l-10.21-17.68Zm38.95,5.27l2.75-4.77h20.42l10.21,17.68-10.21,17.69h-20.42l-2.71-4.71-7.49-12.98,7.45-12.91Zm24.04-5.27l10.2-17.68h20.42l2.75,4.76,7.46,12.92-7.46,12.92-2.75,4.76h-20.42l-10.2-17.68Zm41.7.5h20.41l10.21,17.68-10.21,17.69h-20.41l-10.21-17.69,10.21-17.68Zm0-1l-6.81-11.79-3.4-5.89,10.21-17.68h20.41l10.21,17.68-10.21,17.68h-20.41Zm0-36.36l-6.81-11.79-3.4-5.89,10.21-17.68h20.41l10.21,17.68-10.21,17.68h-20.41Zm0-36.36l-10.21-17.69,10.21-17.68h20.41l10.21,17.68-10.21,17.69h-20.41Zm0-36.37l-6.81-11.79-3.4-5.89,10.21-17.68h20.41l10.21,17.68-10.21,17.68h-20.41Zm0-36.36l-10.21-17.68,10.21-17.69h20.41l10.21,17.69-10.21,17.68h-20.41Zm0-36.37l-6.81-11.78-3.4-5.9,10.21-17.68h20.41l10.21,17.68-10.21,17.68h-20.41Zm0-36.36l-6.81-11.79-3.4-5.89,10.21-17.68h20.41l10.21,17.68-10.21,17.68h-20.41Zm0-36.36l-6.81-11.79-3.4-5.89,10.21-17.69h20.41l10.21,17.69-10.21,17.68h-20.41Zm-11.08-53.55l2.73,4.74,7.48,12.94-7.46,12.92-2.75,4.77h-20.42l-10.2-17.69,10.2-17.68h20.42Zm-54.66-13.42l2.75-4.76h20.42l10.21,17.68-10.21,17.68h-20.42l-2.73-4.73-7.47-12.95,7.45-12.92Zm-8.32,13.42l10.21,17.68-10.21,17.69h-20.42l-10.21-17.69,10.21-17.68h20.42Zm-51.91-18.18h20.42l10.21,17.68-10.21,17.68h-20.42l-10.21-17.68,10.21-17.68Zm-11.07,18.18l10.2,17.68-10.2,17.69h-20.42l-10.21-17.69,10.21-17.68h20.42Zm-51.91-18.18h20.41l10.21,17.68-10.21,17.68h-20.41l-10.21-17.68,10.21-17.68Zm-11.08,18.18l2.74,4.74,7.47,12.94-7.46,12.92-2.75,4.77h-20.41l-10.21-17.69,10.21-17.68h20.41Zm-54.65-13.42l2.75-4.76h20.41l10.21,17.68-10.21,17.68h-20.41l-2.74-4.73-7.47-12.95,7.46-12.92Zm-8.33,13.42l10.21,17.68-10.21,17.69h-20.41l-10.21-17.69,10.21-17.68h20.41Zm-57.01-9.34l5.1-8.84h20.42l10.21,17.68-10.21,17.68h-20.42l-5.1-8.84-5.1-8.84,5.1-8.84Zm-5.97,9.34l5.1,8.84,5.11,8.84-5.11,8.84-5.1,8.85h-20.42l-10.2-17.69,10.2-17.68h20.42Zm-51.91-18.18h20.42l10.21,17.68-10.21,17.68h-20.42l-10.21-17.68,10.21-17.68Zm-11.07,18.18l7.47,12.95,2.74,4.73-2.76,4.77-7.45,12.92h-20.42l-10.21-17.69,10.21-17.68h20.42Zm-54.66-13.42l2.75-4.76h20.42l10.2,17.68-10.2,17.68h-20.42l-2.73-4.73-7.48-12.95,7.46-12.92Zm-8.33,13.42l10.21,17.68-10.21,17.69H3.61l-10.21-17.69,10.21-17.68h20.41Zm-57.01,8.34l-5.1-8.84,5.1-8.84,5.11-8.84H-7.47l10.21,17.68-10.21,17.68h-20.41l-5.11-8.84Zm0,36.37l-5.1-8.84,5.1-8.85,5.11-8.84H-7.47l10.21,17.69-10.21,17.68h-20.41l-5.11-8.84Zm0,36.36l-5.1-8.84,5.1-8.84,5.11-8.84H-7.47l10.21,17.68-10.21,17.68h-20.41l-5.11-8.84Zm0,36.36l-5.1-8.84,5.1-8.84,5.11-8.84H-7.47l10.21,17.68-10.21,17.68h-20.41l-5.11-8.84Zm0,36.37l-5.1-8.84,5.1-8.84,5.11-8.85H-7.47l10.21,17.69-10.21,17.68h-20.41l-5.11-8.84Zm0,36.36l-5.1-8.84,5.1-8.84,5.11-8.84H-7.47l10.21,17.68-10.21,17.68h-20.41l-5.11-8.84Zm0,36.36l-5.1-8.84,5.1-8.84,5.11-8.84H-7.47l10.21,17.68-10.21,17.69h-20.41l-5.11-8.85Zm0,36.37l-5.1-8.84,5.1-8.84,5.11-8.84H-7.47l10.21,17.68-10.21,17.68h-20.41l-5.11-8.84Zm0,36.36l-5.1-8.84,5.1-8.84,5.11-8.84H-7.47l10.21,17.68-10.21,17.68h-20.41l-5.11-8.84Zm0,36.37l-5.1-8.85,5.1-8.84,5.11-8.84H-7.47l10.21,17.68-10.21,17.69h-20.41l-5.11-8.84Zm25.52,45.2h-20.41l-5.11-8.84-5.1-8.84,5.1-8.84,5.11-8.84H-7.47l10.21,17.68-10.21,17.68Zm11.08-18.18l-10.21-17.68,10.21-17.69h20.41l10.21,17.69-10.21,17.68H3.61Zm51.91,18.18h-20.42l-2.75-4.76-7.46-12.92,7.46-12.92,2.75-4.76h20.42l10.2,17.68-10.2,17.68Zm11.07-18.18l-10.21-17.68,10.21-17.69h20.42l7.49,12.98,2.72,4.71-2.76,4.76-7.45,12.92h-20.42Zm51.91,18.18h-20.42l-10.21-17.68,10.21-17.68h20.42l10.21,17.68-10.21,17.68Zm11.07-18.18l-10.2-17.68,10.2-17.69h20.42l5.1,8.85,5.11,8.84-5.11,8.84-5.1,8.84h-20.42Zm51.91,18.18h-20.42l-5.1-8.84-5.1-8.84,5.1-8.84,5.1-8.84h20.42l10.21,17.68-10.21,17.68Zm11.08-18.18l-10.21-17.68,10.21-17.69h20.41l10.21,17.69-10.21,17.68h-20.41Zm51.9,18.18h-20.41l-2.75-4.76-7.46-12.92,7.46-12.92,2.75-4.76h20.41l10.21,17.68-10.21,17.68Zm11.08-18.18l-10.21-17.68,10.21-17.69h20.41l2.72,4.71,7.49,12.98-7.46,12.91-2.75,4.77h-20.41Zm51.9,18.18h-20.41l-6.81-11.79-3.4-5.89,10.21-17.68h20.41l10.21,17.68-10.21,17.68Zm11.08-18.18l-10.21-17.68,10.21-17.69h20.42l10.2,17.69-10.2,17.68h-20.42Zm51.91,18.18h-20.42l-10.21-17.68,10.21-17.68h20.42l10.21,17.68-10.21,17.68Zm11.07-18.18l-10.21-17.68,10.21-17.69h20.42l10.21,17.69-10.21,17.68h-20.42Zm51.91,18.18h-20.42l-2.75-4.76-7.45-12.92,7.45-12.92,2.75-4.76h20.42l10.21,17.68-10.21,17.68Zm11.07-18.18l-10.2-17.68,10.2-17.69h20.42l2.72,4.71,7.49,12.98-7.46,12.91-2.75,4.77h-20.42Zm51.91,18.18h-20.41l-6.81-11.79-3.4-5.89,10.21-17.68h20.41l10.21,17.68-10.21,17.68Zm36.6-44.7l5.1,8.84-5.1,8.84-5.11,8.84h-20.41l-10.21-17.68,10.21-17.69h20.41l5.11,8.85Zm0-36.37l5.1,8.84-5.1,8.84-5.11,8.84h-20.41l-10.21-17.68,10.21-17.68h20.41l5.11,8.84Zm0-36.36l5.1,8.84-5.1,8.84-5.11,8.84h-20.41l-10.21-17.68,10.21-17.68h20.41l5.11,8.84Zm0-36.37l5.1,8.85-5.1,8.84-5.11,8.84h-20.41l-10.21-17.68,10.21-17.69h20.41l5.11,8.84Zm0-36.36l5.1,8.84-5.1,8.84-5.11,8.84h-20.41l-10.21-17.68,10.21-17.68h20.41l5.11,8.84Zm0-36.36l5.1,8.84-5.1,8.84-5.11,8.84h-20.41l-10.21-17.68,10.21-17.68h20.41l5.11,8.84Zm0-36.37l5.1,8.84-5.1,8.85-5.11,8.84h-20.41l-10.21-17.69,10.21-17.68h20.41l5.11,8.84Zm0-36.36l5.1,8.84-5.1,8.84-5.11,8.84h-20.41l-10.21-17.68,10.21-17.68h20.41l5.11,8.84Zm0-36.36l5.1,8.84-5.1,8.84-5.11,8.84h-20.41l-10.21-17.68,10.21-17.68h20.41l5.11,8.84Zm0-36.37l5.1,8.84-5.1,8.84-5.11,8.85h-20.41l-10.21-17.69,10.21-17.68h20.41l5.11,8.84Z"/>
  </g>
  <g id="_404" data-name="404">
    <g>
      <path class="cls-6" d="m147.68,287.64h-60.85v-27.47l60.85-72.34h29.12v73.9h15.09v25.92h-15.09v22.47h-29.12v-22.47Zm0-25.92v-37.84l-32.16,37.84h32.16Z"/>
      <path class="cls-6" d="m202.3,249.51c0-22.85,4.11-38.85,12.34-47.98,8.23-9.13,20.76-13.7,37.6-13.7,8.09,0,14.73,1,19.93,2.99,5.19,2,9.43,4.59,12.71,7.79,3.28,3.2,5.86,6.56,7.75,10.09,1.89,3.53,3.4,7.64,4.55,12.34,2.24,8.97,3.36,18.32,3.36,28.05,0,21.82-3.69,37.78-11.07,47.9-7.38,10.12-20.09,15.17-38.14,15.17-10.12,0-18.29-1.61-24.52-4.84-6.23-3.23-11.35-7.95-15.34-14.19-2.9-4.43-5.15-10.48-6.77-18.17-1.61-7.68-2.42-16.17-2.42-25.47Zm33.13.08c0,15.31,1.35,25.77,4.06,31.37,2.71,5.6,6.63,8.41,11.77,8.41,3.39,0,6.33-1.19,8.82-3.57,2.49-2.38,4.32-6.14,5.5-11.28,1.18-5.14,1.76-13.15,1.76-24.03,0-15.96-1.35-26.69-4.06-32.19-2.71-5.5-6.77-8.24-12.18-8.24s-9.51,2.8-11.97,8.41c-2.46,5.61-3.69,15.98-3.69,31.12Z"/>
      <path class="cls-6" d="m371.74,287.64h-60.85v-27.47l60.85-72.34h29.12v73.9h15.09v25.92h-15.09v22.47h-29.12v-22.47Zm0-25.92v-37.84l-32.16,37.84h32.16Z"/>
    </g>
  </g>
  <g id="Planets">
    <g>
      <g class="cls-17">
        <path class="cls-6" d="m200.95,145.62c0,1.03-.84,1.87-1.87,1.87s-1.87-.84-1.87-1.87.84-1.87,1.87-1.87,1.87.84,1.87,1.87Z"/>
        <circle class="cls-6" cx="72.97" cy="216.13" r="1.32"/>
        <circle class="cls-6" cx="291.05" cy="408.33" r="1.89"/>
        <circle class="cls-6" cx="336.5" cy="332" r="1.32"/>
        <path class="cls-6" d="m424.17,95.62c0,.73-.59,1.32-1.32,1.32s-1.32-.59-1.32-1.32.59-1.32,1.32-1.32,1.32.59,1.32,1.32Z"/>
        <path class="cls-6" d="m172.75,68.96c0,.73-.59,1.32-1.32,1.32s-1.32-.59-1.32-1.32.59-1.32,1.32-1.32,1.32.59,1.32,1.32Z"/>
        <circle class="cls-6" cx="277.7" cy="136.94" r="1.32"/>
      </g>
      <g>
        <g>
          <circle class="cls-6" cx="141.23" cy="116.36" r="21.91"/>
          <circle class="cls-12" cx="141.23" cy="116.36" r="21.91"/>
        </g>
        <path class="cls-3" d="m133.68,99.83c-3.07,0-5.99.63-8.64,1.77-3.55,3.89-5.72,9.08-5.72,14.76,0,12.1,9.81,21.9,21.9,21.9,3.08,0,6.02-.63,8.68-1.78h0c3.53-3.9,5.68-9.07,5.68-14.74,0-12.11-9.81-21.91-21.91-21.91Z"/>
        <path class="cls-3" d="m131.5,105.62c0,1.11-.9,2-2,2s-2-.9-2-2,.9-2,2-2,2,.9,2,2Z"/>
        <path class="cls-3" d="m155.06,103.62c0,1.11-.9,2-2,2s-2-.9-2-2,.9-2,2-2,2,.9,2,2Z"/>
        <path class="cls-3" d="m151.06,117.9c0,1.81-1.47,3.28-3.28,3.28s-3.28-1.47-3.28-3.28,1.47-3.28,3.28-3.28,3.28,1.47,3.28,3.28Z"/>
        <path class="cls-3" d="m140.64,127.25c0,2.42-1.96,4.38-4.38,4.38s-4.38-1.96-4.38-4.38,1.96-4.38,4.38-4.38,4.38,1.96,4.38,4.38Z"/>
      </g>
      <g>
        <g>
          <circle class="cls-6" cx="382.2" cy="376.25" r="19.23" transform="translate(-71.8 661.78) rotate(-76.72)"/>
          <circle class="cls-9" cx="382.2" cy="376.25" r="19.23" transform="translate(-71.8 661.78) rotate(-76.72)"/>
        </g>
        <path class="cls-2" d="m394.33,361.34c-1.75-.53-3.61-.81-5.54-.81-10.62,0-19.23,8.61-19.23,19.23,0,6.02,2.76,11.38,7.09,14.91,1.75.53,3.61.81,5.54.81,10.62,0,19.23-8.61,19.23-19.23,0-6.02-2.76-11.39-7.09-14.91Z"/>
        <path class="cls-6" d="m363.83,381.95c-20.53,9.66-5.22,17.11,23.71,6.71,26.78-9.63,36.97-21.77,13.05-18.01,1.23,5.11-32.31,18.18-36.76,11.29Z"/>
      </g>
    </g>
  </g>
  <g id="Astronaut">
    <g>
      <path class="cls-15" d="m394.1,187.83c-26.89,18.17-61.7,42.13-71.31,99.81h-2.05c9.35-56.98,42.89-81.57,69.79-99.81h3.57Z"/>
      <g>
        <path class="cls-6" d="m255.02,368.27c-16.97,0-33.81-7.66-41.99-20.19-5.05-7.74-10.92-23.95,6.56-45.58l1.56,1.26c-12.36,15.3-14.65,30.65-6.44,43.23,9.99,15.31,33.6,23.01,53.73,17.53,20.63-5.61,33.15-23.56,34.36-49.23,4.13-87.81,50.78-114.85,84.85-134.6,21.16-12.27,36.45-21.14,33.09-39.84-.47-2.59-1.5-4.39-3.16-5.48-4.35-2.87-12.85-.89-22.69,1.41-19.31,4.5-45.75,10.66-61.5-16.13l1.72-1.01c15.01,25.52,39.58,19.8,59.32,15.2,10.29-2.4,19.18-4.47,24.25-1.13,2.14,1.41,3.46,3.64,4.03,6.8,3.61,20.08-13.01,29.72-34.06,41.92-33.66,19.52-79.77,46.25-83.85,132.97-1.25,26.6-14.31,45.21-35.83,51.06-4.54,1.23-9.25,1.82-13.94,1.82Z"/>
        <path class="cls-13" d="m255.02,368.27c-16.97,0-33.81-7.66-41.99-20.19-5.05-7.74-10.92-23.95,6.56-45.58l1.56,1.26c-12.36,15.3-14.65,30.65-6.44,43.23,9.99,15.31,33.6,23.01,53.73,17.53,20.63-5.61,33.15-23.56,34.36-49.23,4.13-87.81,50.78-114.85,84.85-134.6,21.16-12.27,36.45-21.14,33.09-39.84-.47-2.59-1.5-4.39-3.16-5.48-4.35-2.87-12.85-.89-22.69,1.41-19.31,4.5-45.75,10.66-61.5-16.13l1.72-1.01c15.01,25.52,39.58,19.8,59.32,15.2,10.29-2.4,19.18-4.47,24.25-1.13,2.14,1.41,3.46,3.64,4.03,6.8,3.61,20.08-13.01,29.72-34.06,41.92-33.66,19.52-79.77,46.25-83.85,132.97-1.25,26.6-14.31,45.21-35.83,51.06-4.54,1.23-9.25,1.82-13.94,1.82Z"/>
      </g>
      <g>
        <g>
          <path class="cls-6" d="m312.76,96.95c6.86-.12,13.58,2.13,13.58,2.13,0,0,10.96,18.77,12.3,23.07-.46,4.24-7.62,11.19-7.62,11.19l-18.27-36.39Z"/>
          <path class="cls-9" d="m312.76,96.95c6.86-.12,13.58,2.13,13.58,2.13,0,0,10.96,18.77,12.3,23.07-.46,4.24-7.62,11.19-7.62,11.19l-18.27-36.39Z"/>
        </g>
        <g>
          <g>
            <path class="cls-6" d="m345.34,188.13c-4.14-5.25-8.2-10.59-11.56-16.38-.84-1.45-1.64-2.92-2.39-4.42-.43-.85-.84-1.71-1.24-2.57-.35-.75-1.13-1.86-1.2-2.68-1.2-12.67,3.14-22-1.03-32.17l-16.47,6.44s1.4,18.12,4.6,28.96c1.98,6.73,6.47,12.55,10.8,17.94,1.35,1.69,2.66,3.41,4.01,5.1,1.28,1.6,2.71,3.06,3.99,4.65,1.95,2.41,2.59,4.72,1.11,7.56-.08.15-.16.3-.25.45-.42.74,1.55,1.58,2.78.02,2.04-2.58,1.72-2.42,3.46-4.62,1.06-1.34,2.27-2.78,3.32-4.03,1.02-1.22,1.05-2.99.06-4.25Z"/>
            <path class="cls-12" d="m345.34,188.13c-4.14-5.25-8.2-10.59-11.56-16.38-.84-1.45-1.64-2.92-2.39-4.42-.43-.85-.84-1.71-1.24-2.57-.35-.75-1.13-1.86-1.2-2.68-1.2-12.67,3.14-22-1.03-32.17l-16.47,6.44s1.4,18.12,4.6,28.96c1.98,6.73,6.47,12.55,10.8,17.94,1.35,1.69,2.66,3.41,4.01,5.1,1.28,1.6,2.71,3.06,3.99,4.65,1.95,2.41,2.59,4.72,1.11,7.56-.08.15-.16.3-.25.45-.42.74,1.55,1.58,2.78.02,2.04-2.58,1.72-2.42,3.46-4.62,1.06-1.34,2.27-2.78,3.32-4.03,1.02-1.22,1.05-2.99.06-4.25Z"/>
          </g>
          <path class="cls-5" d="m341.31,182.92c-2.21,2.67-6.69,6.12-8.66,7.52.43.48.86.97,1.28,1.46,4.07-2.66,7.28-6.1,8.5-7.5-.38-.49-.75-.98-1.12-1.48Z"/>
          <path class="cls-5" d="m345.34,188.13c-.04-.05-.08-.09-.12-.15-.69.72-1.18,1.88-1.26,3.17-.07.89.08,1.71.38,2.35.33-.39.64-.77.95-1.13,1.03-1.22,1.04-2.99.05-4.24Z"/>
        </g>
        <g>
          <g>
            <path class="cls-6" d="m308.84,108.95c-1.72,2.51-3.75,4.98-6.38,7.19-1.3,1.11-2.79,2.12-4.42,2.98-.82.42-1.69.78-2.58,1.08l-.67.22-.22.07c-.16.05-.32.09-.48.13-.3.07-.61.11-.87.14-1.08.08-1.87-.07-2.51-.23-1.28-.35-2.13-.81-2.94-1.26-.8-.46-1.49-.93-2.15-1.41-1.3-.99-2.48-1.99-3.58-3.05-2.21-2.11-4.17-4.3-5.99-6.74-.83-1.11-.6-2.68.51-3.51.86-.64,1.99-.65,2.84-.11l.08.05c2.36,1.5,4.74,3.08,7.06,4.49,1.17.69,2.32,1.39,3.45,1.93.55.28,1.1.54,1.59.72.48.19.95.29,1.08.27.05,0,0-.07-.38-.06-.09,0-.22.02-.34.04-.07.01-.15.03-.22.06-.07.02.03-.02.03-.02l.33-.17c.44-.22.86-.5,1.29-.79.86-.58,1.67-1.31,2.5-2.12,1.65-1.63,3.23-3.67,4.9-5.79l.02-.03c1.71-2.17,4.86-2.54,7.03-.82,2.08,1.64,2.49,4.61,1.02,6.76Z"/>
            <path class="cls-12" d="m308.84,108.95c-1.72,2.51-3.75,4.98-6.38,7.19-1.3,1.11-2.79,2.12-4.42,2.98-.82.42-1.69.78-2.58,1.08l-.67.22-.22.07c-.16.05-.32.09-.48.13-.3.07-.61.11-.87.14-1.08.08-1.87-.07-2.51-.23-1.28-.35-2.13-.81-2.94-1.26-.8-.46-1.49-.93-2.15-1.41-1.3-.99-2.48-1.99-3.58-3.05-2.21-2.11-4.17-4.3-5.99-6.74-.83-1.11-.6-2.68.51-3.51.86-.64,1.99-.65,2.84-.11l.08.05c2.36,1.5,4.74,3.08,7.06,4.49,1.17.69,2.32,1.39,3.45,1.93.55.28,1.1.54,1.59.72.48.19.95.29,1.08.27.05,0,0-.07-.38-.06-.09,0-.22.02-.34.04-.07.01-.15.03-.22.06-.07.02.03-.02.03-.02l.33-.17c.44-.22.86-.5,1.29-.79.86-.58,1.67-1.31,2.5-2.12,1.65-1.63,3.23-3.67,4.9-5.79l.02-.03c1.71-2.17,4.86-2.54,7.03-.82,2.08,1.64,2.49,4.61,1.02,6.76Z"/>
          </g>
          <g>
            <path class="cls-6" d="m272.29,102.42l1.17,1.97s.9,2.62,2.69,3.1l4.85-1.57-.24-.41s0,0,0,0c-.62-.95-.55-2.77-.34-4.29.22-1.52-.57-1.57-1.15-1.2-.34.22-.57.91-.85,1.66-.24-.33-.49-.65-.78-.93l-1.48-1.48c-.64-.64-1.67-.67-2.34-.07l-1.2,1.07c-.61.54-.75,1.45-.33,2.15Z"/>
            <path class="cls-12" d="m272.29,102.42l1.17,1.97s.9,2.62,2.69,3.1l4.85-1.57-.24-.41s0,0,0,0c-.62-.95-.55-2.77-.34-4.29.22-1.52-.57-1.57-1.15-1.2-.34.22-.57.91-.85,1.66-.24-.33-.49-.65-.78-.93l-1.48-1.48c-.64-.64-1.67-.67-2.34-.07l-1.2,1.07c-.61.54-.75,1.45-.33,2.15Z"/>
          </g>
        </g>
        <g>
          <path class="cls-6" d="m317.67,95.22c-4.65,1.13-11.04,3.78-15.35,6.47-1.53.95-2.29,2.76-1.93,4.52,1.92,9.44,6.31,22.08,11.05,30.13l22.11-9.15c.15-3.9-5.22-16.52-10.68-28.72-.98-2.19-2.86-3.82-5.2-3.26Z"/>
          <path class="cls-11" d="m317.67,95.22c-4.65,1.13-11.04,3.78-15.35,6.47-1.53.95-2.29,2.76-1.93,4.52,1.92,9.44,6.31,22.08,11.05,30.13l22.11-9.15c.15-3.9-5.22-16.52-10.68-28.72-.98-2.19-2.86-3.82-5.2-3.26Z"/>
        </g>
        <path class="cls-5" d="m326.3,106.21l-4.39-1.47c.98,2.57,4.53,5.82,7.03,7.73-.82-2.01-1.71-4.1-2.64-6.26Z"/>
        <g>
          <path class="cls-6" d="m316.22,85.32c-1.82-3.48-5.77-5.23-10.52-4.84-4,.33-7.54,4.42-7.12,6.62.42,2.21,3.78,3.14,4.39,3.91l-2.77,2.01c-1.38,1-1.65,2.95-.6,4.29,1.17,1.48,2.7,3.03,3.6,4.12,7.66-.2,13.33-3.12,15.37-5.94-.73-3.58-.54-6.71-2.36-10.18Z"/>
          <path class="cls-11" d="m316.22,85.32c-1.82-3.48-5.77-5.23-10.52-4.84-4,.33-7.54,4.42-7.12,6.62.42,2.21,3.78,3.14,4.39,3.91l-2.77,2.01c-1.38,1-1.65,2.95-.6,4.29,1.17,1.48,2.7,3.03,3.6,4.12,7.66-.2,13.33-3.12,15.37-5.94-.73-3.58-.54-6.71-2.36-10.18Z"/>
        </g>
        <path class="cls-21" d="m312.46,87.48c1.52,3.9-.4,8.29-4.3,9.81-3.9,1.52-8.29-.4-9.81-4.3-1.52-3.9.4-8.29,4.3-9.81,3.9-1.52,8.29.4,9.81,4.3Z"/>
        <g>
          <g>
            <path class="cls-6" d="m377.39,177.6c-.11-3.29-.25-2.96-.35-5.76-.06-1.7-.07-3.59-.08-5.22-.01-1.59-1.14-2.96-2.7-3.28-1.33-.27-2.65-.52-3.98-.81-1.73-.37-3.43-.76-5.13-1.26-1.31-.38-2.62-.8-3.9-1.27-1.38-.5-2.74-1.04-4.09-1.62-1.58-.68-3.13-1.4-4.68-2.14-1.73-.83-3.44-1.68-5.14-2.55-6.58-10.9-6.72-18.07-13.79-26.5l-15.16,6.86s11.14,19.76,18.72,28.14c4.37,4.82,11.22,7,17.33,8.57,4.41,1.14,8.88,2.01,13.35,2.83,1.74.32,3.63.44,5.13,1.48,1.18.82,1.79,2.1,2.14,3.45.07.28.13.56.18.84.16.84,2.2.21,2.13-1.78Z"/>
            <path class="cls-11" d="m377.39,177.6c-.11-3.29-.25-2.96-.35-5.76-.06-1.7-.07-3.59-.08-5.22-.01-1.59-1.14-2.96-2.7-3.28-1.33-.27-2.65-.52-3.98-.81-1.73-.37-3.43-.76-5.13-1.26-1.31-.38-2.62-.8-3.9-1.27-1.38-.5-2.74-1.04-4.09-1.62-1.58-.68-3.13-1.4-4.68-2.14-1.73-.83-3.44-1.68-5.14-2.55-6.58-10.9-6.72-18.07-13.79-26.5l-15.16,6.86s11.14,19.76,18.72,28.14c4.37,4.82,11.22,7,17.33,8.57,4.41,1.14,8.88,2.01,13.35,2.83,1.74.32,3.63.44,5.13,1.48,1.18.82,1.79,2.1,2.14,3.45.07.28.13.56.18.84.16.84,2.2.21,2.13-1.78Z"/>
          </g>
          <path class="cls-5" d="m369.7,162.4c-.6-.13-1.2-.26-1.81-.41.05,3.45-1.57,9.42-2.17,11.22.63.12,1.27.24,1.9.36,1.76-4.75,2.03-9.77,2.07-11.18Z"/>
          <path class="cls-5" d="m376.96,166.61c-.01-1.6-1.13-2.96-2.69-3.28-.31-.06-.64-.13-.95-.19.07.94.65,2.03,1.63,2.9.64.58,1.37.96,2.03,1.14,0-.2,0-.39-.01-.57Z"/>
        </g>
        <path class="cls-8" d="m311.05,87.54c.4,1.52-1.29,3.11-2.65,1.8-1.1-1.06-2.76-2.85-4.12-3.69-1.39-.87.46-2.39,2.65-1.8,2.04.55,3.71,2.18,4.12,3.69Z"/>
        <g>
          <path class="cls-6" d="m311.16,135.86c-.7.26.58,1.46.58,1.46,0,0,13.97-4.79,22.49-9.72.07-1.03-.68-1.58-.68-1.58,0,0-10.37,5.4-22.4,9.84Z"/>
          <path class="cls-10" d="m311.16,135.86c-.7.26.58,1.46.58,1.46,0,0,13.97-4.79,22.49-9.72.07-1.03-.68-1.58-.68-1.58,0,0-10.37,5.4-22.4,9.84Z"/>
        </g>
        <g>
          <g>
            <path class="cls-6" d="m321.46,94.56c2.76,1.39,5.35,2.87,7.95,4.5,1.29.81,2.58,1.65,3.84,2.55,1.28.88,2.53,1.81,3.8,2.86l.47.39.59.53c.42.37.73.71,1.04,1.05.32.35.59.69.85,1.03.27.34.53.68.77,1.01.99,1.33,1.8,2.68,2.59,4.02,1.54,2.72,2.87,5.43,3.97,8.35.49,1.3-.17,2.75-1.47,3.24-.98.37-2.04.09-2.72-.63l-.05-.05c-2.01-2.13-3.94-4.37-5.88-6.46-1.9-2.08-3.91-4.21-5.54-5.14-2.27-1.42-4.8-2.82-7.31-4.21l-7.56-4.2h-.02c-2.42-1.35-3.29-4.39-1.95-6.81,1.31-2.35,4.24-3.24,6.63-2.04Z"/>
            <path class="cls-11" d="m321.46,94.56c2.76,1.39,5.35,2.87,7.95,4.5,1.29.81,2.58,1.65,3.84,2.55,1.28.88,2.53,1.81,3.8,2.86l.47.39.59.53c.42.37.73.71,1.04,1.05.32.35.59.69.85,1.03.27.34.53.68.77,1.01.99,1.33,1.8,2.68,2.59,4.02,1.54,2.72,2.87,5.43,3.97,8.35.49,1.3-.17,2.75-1.47,3.24-.98.37-2.04.09-2.72-.63l-.05-.05c-2.01-2.13-3.94-4.37-5.88-6.46-1.9-2.08-3.91-4.21-5.54-5.14-2.27-1.42-4.8-2.82-7.31-4.21l-7.56-4.2h-.02c-2.42-1.35-3.29-4.39-1.95-6.81,1.31-2.35,4.24-3.24,6.63-2.04Z"/>
          </g>
          <g>
            <path class="cls-6" d="m349.73,125.74l-.85-2.13s-.47-2.72-2.17-3.48l-5.04.79.18.44s0,0,0,0c.47,1.03.11,2.83-.34,4.29-.45,1.47.32,1.64.95,1.36.37-.16.71-.81,1.1-1.51.18.36.39.72.63,1.05l1.23,1.69c.53.73,1.54.92,2.3.43l1.35-.87c.69-.44.97-1.31.67-2.07Z"/>
            <path class="cls-11" d="m349.73,125.74l-.85-2.13s-.47-2.72-2.17-3.48l-5.04.79.18.44s0,0,0,0c.47,1.03.11,2.83-.34,4.29-.45,1.47.32,1.64.95,1.36.37-.16.71-.81,1.1-1.51.18.36.39.72.63,1.05l1.23,1.69c.53.73,1.54.92,2.3.43l1.35-.87c.69-.44.97-1.31.67-2.07Z"/>
          </g>
        </g>
        <g>
          <g>
            <path class="cls-5" d="m317.24,106.06l-1.22.1-7.49,18.08c.44.03.84,0,1.22-.1,0,0,9.76-3.64,12.71-4.97-1.99-4.12-5.23-13.11-5.23-13.11Z"/>
            <path class="cls-8" d="m303.57,110.8c.42,3.26,2.86,10.18,4.96,13.44,3.66-1.26,9.76-3.64,12.71-4.97-1.99-4.12-4.08-9.8-5.23-13.11-3.15.21-10.01,2.8-12.45,4.65Z"/>
          </g>
          <path class="cls-5" d="m311,114.71c-.41,1.36-1.85,2.14-3.21,1.73s-2.14-1.85-1.73-3.21c.41-1.36,1.85-2.14,3.21-1.73,1.36.41,2.14,1.85,1.73,3.21Z"/>
          <path class="cls-4" d="m312.91,111.27c-.13.45-.6.7-1.05.57-.45-.13-.7-.6-.57-1.05.13-.45.6-.7,1.05-.57.45.13.7.6.57,1.05Z"/>
          <path class="cls-4" d="m315.15,110.4c-.13.45-.6.7-1.05.57-.45-.13-.7-.6-.57-1.05.13-.45.61-.7,1.05-.57.45.13.7.6.57,1.05Z"/>
          <polygon class="cls-7" points="318.29 118.19 309.04 121.84 308.49 120.02 317.73 116.37 318.29 118.19"/>
        </g>
      </g>
    </g>
  </g>
  <g id="Rocket">
    <g>
      <path class="cls-15" d="m267.26,257.17c-.2,7.54-.76,13.33-1.68,17.35-1.18,5.14-3.01,8.9-5.5,11.28-2.48,2.38-5.42,3.57-8.81,3.57-5.14,0-9.07-2.8-11.77-8.41-.44-.91-.84-1.95-1.21-3.11-5.71,4.91-11.03,10.27-15.92,16.03l-5.31,6.26c2.87,2.91,6.13,5.3,9.77,7.19,6.23,3.22,14.4,4.84,24.52,4.84,1.78,0,3.5-.05,5.17-.15,6.12-9.06,11.19-18.8,15.1-29.02l14.85-38.72-19.21,12.89Z"/>
      <g>
        <path class="cls-21" d="m133.39,309.96c5.6,5.6,17.5,17.5,17.5,17.5l49.01-46.17c-16.87-6.41-49.74,11.9-66.51,28.67Z"/>
        <path class="cls-21" d="m194.42,370.99c-5.6-5.6-17.5-17.5-17.5-17.5l46.17-49.01c6.41,16.87-11.9,49.74-28.67,66.51Z"/>
        <g>
          <path class="cls-6" d="m261.4,260.7l19.09-36.81-36.81,19.09c-11.83,6.13-22.74,13.88-32.44,23.01l-62.75,59.07,30.83,30.83,59.07-62.75c9.13-9.7,16.87-20.62,23.01-32.44Z"/>
          <path class="cls-14" d="m261.4,260.7l19.09-36.81-36.81,19.09c-11.83,6.13-22.74,13.88-32.44,23.01l-62.75,59.07,30.83,30.83,59.07-62.75c9.13-9.7,16.87-20.62,23.01-32.44Z"/>
        </g>
        <circle class="cls-8" cx="222.2" cy="282.18" r="12.9"/>
        <circle class="cls-6" cx="222.2" cy="282.18" r="8.29"/>
        <polygon class="cls-5" points="189.75 344.82 159.56 314.63 184.28 291.37 213.01 320.1 189.75 344.82"/>
        <g>
          <path class="cls-6" d="m140.22,337.62c-22.6,1.84-30.09,16.31-32.65,35.54-1.3,9.81-1.88,19.73-10.12,25.48-2.29,1.59-1.15,5.15,1.63,5.06,30.34-.95,44.49-15.8,46.27-22.02-.61,3.93-1.5,7.04-2.49,9.47-1.02,2.51,1.74,4.83,4.03,3.39,8.52-5.34,19.2-15.16,19.91-31.08-6.3-8.85-26.58-25.84-26.58-25.84Z"/>
          <path class="cls-13" d="m140.22,337.62c-22.6,1.84-30.09,16.31-32.65,35.54-1.3,9.81-1.88,19.73-10.12,25.48-2.29,1.59-1.15,5.15,1.63,5.06,30.34-.95,44.49-15.8,46.27-22.02-.61,3.93-1.5,7.04-2.49,9.47-1.02,2.51,1.74,4.83,4.03,3.39,8.52-5.34,19.2-15.16,19.91-31.08-6.3-8.85-26.58-25.84-26.58-25.84Z"/>
        </g>
        <polygon class="cls-6" points="170.28 370.3 134.08 334.1 153.36 329.93 174.45 351.02 170.28 370.3"/>
      </g>
    </g>
  </g>
</svg>